              <svg id="sw-js-blob-svg" viewBox="0 0 100 100" xmlns="http://www.w3.org/2000/svg" version="1.1">
                    <defs> 
                        <linearGradient id="sw-gradient" x1="0" x2="1" y1="1" y2="0">
                            <stop id="stop1" stop-color="rgba(248, 117, 55, 1)" offset="0%"></stop>
                            <stop id="stop2" stop-color="rgba(251, 168, 31, 1)" offset="100%"></stop>
                        </linearGradient>
                    </defs>
                <path fill="url(#sw-gradient)" d="M19.2,-25C25.3,-17.8,30.7,-12.1,33.2,-4.9C35.7,2.4,35.1,11.2,31.3,18.2C27.4,25.2,20.2,30.5,12.4,32.8C4.6,35,-3.8,34.2,-10.3,30.8C-16.9,27.3,-21.6,21.3,-27.5,14.3C-33.4,7.3,-40.6,-0.6,-40.1,-7.7C-39.5,-14.7,-31.2,-21.1,-23.3,-27.9C-15.3,-34.8,-7.7,-42.2,-0.5,-41.5C6.6,-40.9,13.2,-32.2,19.2,-25Z" width="100%" height="100%" transform="translate(50 50)" stroke-width="0" style="transition: all 0.3s ease 0s;"></path>
              </svg>